<?xml version="1.0" encoding="UTF-8" standalone="no"?>
<svg
   xmlns:dc="http://purl.org/dc/elements/1.1/"
   xmlns:cc="http://creativecommons.org/ns#"
   xmlns:rdf="http://www.w3.org/1999/02/22-rdf-syntax-ns#"
   xmlns:svg="http://www.w3.org/2000/svg"
   xmlns="http://www.w3.org/2000/svg"
   xmlns:sodipodi="http://sodipodi.sourceforge.net/DTD/sodipodi-0.dtd"
   xmlns:inkscape="http://www.inkscape.org/namespaces/inkscape"
   width="46mm"
   height="14mm"
   viewBox="0 0 46 14"
   version="1.1"
   id="svg8"
   inkscape:version="1.0 (6e3e5246a0, 2020-05-07)"
   sodipodi:docname="REAL-white.svg">
  <defs
     id="defs2">
    <rect
       x="12.765555"
       y="36.826241"
       width="192.64291"
       height="53.941429"
       id="rect12" />
    <rect
       id="rect12-4"
       height="53.941429"
       width="192.64291"
       y="36.826241"
       x="12.765555" />
    <rect
       id="rect25"
       height="53.941429"
       width="192.64291"
       y="36.826241"
       x="12.765555" />
    <rect
       x="12.765555"
       y="36.826241"
       width="192.64291"
       height="53.941429"
       id="rect12-4-6" />
    <rect
       x="12.765555"
       y="36.826241"
       width="192.64291"
       height="53.941429"
       id="rect54" />
  </defs>
  <sodipodi:namedview
     width="46mm"
     id="base"
     pagecolor="#ffffff"
     bordercolor="#666666"
     borderopacity="1.0"
     inkscape:pageopacity="0.0"
     inkscape:pageshadow="2"
     inkscape:zoom="3.959798"
     inkscape:cx="68.820605"
     inkscape:cy="37.969944"
     inkscape:document-units="mm"
     inkscape:current-layer="layer2"
     inkscape:document-rotation="0"
     showgrid="false"
     inkscape:window-width="1533"
     inkscape:window-height="845"
     inkscape:window-x="1667"
     inkscape:window-y="27"
     inkscape:window-maximized="1" />
  <metadata
     id="metadata5">
    <rdf:RDF>
      <cc:Work
         rdf:about="">
        <dc:format>image/svg+xml</dc:format>
        <dc:type
           rdf:resource="http://purl.org/dc/dcmitype/StillImage" />
        <dc:title></dc:title>
      </cc:Work>
    </rdf:RDF>
  </metadata>
  <g
     inkscape:groupmode="layer"
     id="layer2"
     inkscape:label="Layer 2"
     style="display:inline">
    <g
       aria-label="REAL"
       transform="matrix(1.8525853,0,0,1.8525853,-21.165909,-72.148795)"
       id="text10-6"
       style="font-size:10.5833px;line-height:1.25;font-family:'Gochi Hand';-inkscape-font-specification:'Gochi Hand';white-space:pre;shape-inside:url(#rect12-4-6);fill:#b3b3b3">
      <path
         d="m 14.662144,41.154571 q -0.103353,0.04134 -0.201537,0.04134 -0.248047,0 -0.341064,-0.294555 -0.02584,-0.07751 -0.03617,-0.12919 -0.0052,-0.05168 -0.0052,-0.09302 0,-0.242878 0.273884,-0.361734 0.542601,-0.21704 1.105873,-0.351398 0.563271,-0.134359 1.136877,-0.134359 0.268717,0 0.527098,0.05684 0.263549,0.05684 0.470254,0.19637 0.206705,0.139526 0.335896,0.372069 0.129191,0.232544 0.129191,0.583942 0,0.248046 -0.103353,0.475422 -0.09818,0.227375 -0.263549,0.43408 -0.165364,0.206706 -0.377236,0.39274 -0.211873,0.186035 -0.434081,0.341063 -0.222208,0.155029 -0.439248,0.28422 -0.217041,0.124023 -0.39274,0.21704 -0.149861,0.08785 -0.149861,0.180867 0,0.10852 0.160196,0.170532 0.552936,0.19637 1.131711,0.366901 0.578774,0.170532 1.173051,0.382405 0.279052,0.103352 0.279052,0.320393 0,0.103352 -0.06201,0.211872 -0.05684,0.103353 -0.129191,0.191202 -0.149861,0.222208 -0.372069,0.222208 -0.07751,0 -0.191202,-0.03101 -0.335896,-0.129191 -0.723468,-0.268717 -0.382404,-0.139526 -0.785479,-0.273884 -0.397907,-0.139526 -0.785479,-0.263549 -0.387572,-0.129191 -0.7183,-0.232543 -0.118856,-0.03101 -0.160197,-0.03101 -0.04134,0 -0.06718,0.02067 -0.02067,0.0155 -0.02067,0.07235 0,0.0155 0.0052,0.04134 0.0052,0.02067 0.0052,0.04651 0.0155,0.07751 0.03617,0.206705 0.02584,0.124023 0.04651,0.258381 0.02584,0.134359 0.04134,0.258382 0.0155,0.118855 0.0155,0.196369 0,0.289388 -0.315225,0.403075 l -0.232544,0.07235 q -0.05168,0.0155 -0.09302,0.02067 -0.04134,0.01033 -0.08785,0.01033 -0.284219,0 -0.330728,-0.351399 -0.124023,-0.940508 -0.320393,-1.855178 -0.191202,-0.91467 -0.439248,-1.824172 -0.0155,-0.05168 -0.02067,-0.08785 0,-0.04134 0,-0.07235 0,-0.273885 0.294554,-0.37207 0.108521,-0.03617 0.1757,-0.05684 0.07235,-0.02067 0.113688,-0.03101 0.04651,-0.0155 0.06718,-0.02067 0.02584,-0.0052 0.04651,-0.0052 0.279052,0 0.361734,0.315225 0.10852,0.403075 0.201538,0.780312 0.09818,0.377236 0.175699,0.744138 0.04134,0.180867 0.149861,0.180867 0.03101,0 0.07235,-0.01034 0.04134,-0.0155 0.09818,-0.04134 0.165364,-0.08785 0.397907,-0.21704 0.237711,-0.129191 0.490925,-0.284219 0.258381,-0.160197 0.506427,-0.335896 0.253214,-0.175699 0.449584,-0.351399 0.201537,-0.175699 0.32556,-0.346231 0.124023,-0.170531 0.124023,-0.320393 0,-0.09302 -0.03101,-0.170531 -0.02584,-0.07752 -0.103352,-0.134359 -0.07751,-0.05684 -0.211873,-0.08785 -0.129191,-0.03101 -0.330728,-0.03101 -0.19637,0 -0.41341,0.03617 -0.211873,0.03101 -0.423746,0.08785 -0.211872,0.05684 -0.418577,0.129191 -0.206705,0.07235 -0.39274,0.149861 z"
         style="fill:#b3b3b3"
         id="path97" />
      <path
         d="m 19.132141,43.800396 q -0.0155,0 -0.05168,0.0052 -0.03101,0.0052 -0.07235,0.01034 -0.03617,0.0052 -0.07235,0.01033 -0.03617,0.0052 -0.05684,0.0052 -0.144693,0 -0.253213,-0.118856 -0.108521,-0.124023 -0.108521,-0.32556 0,-0.134359 0.08785,-0.258382 0.08785,-0.124023 0.273884,-0.206705 0.05684,-0.02584 0.08785,-0.05684 0.03617,-0.03617 0.03617,-0.09819 0,-0.165364 -0.01033,-0.351398 -0.0052,-0.191202 -0.02067,-0.444416 -0.0052,-0.05168 -0.03617,-0.09818 -0.02584,-0.04651 -0.06201,-0.103352 -0.03101,-0.06201 -0.05684,-0.134359 -0.02584,-0.07235 -0.02584,-0.180867 0,-0.09819 0.02584,-0.222208 0.03101,-0.12919 0.118855,-0.237711 0.09302,-0.113687 0.253214,-0.186034 0.165364,-0.07751 0.428913,-0.07751 0.10852,0 0.180867,0.02067 0.07235,0.02067 0.124023,0.05168 0.05684,0.02584 0.09819,0.04651 0.04651,0.02067 0.09302,0.02067 0.08268,0 0.330728,-0.03101 0.248046,-0.03101 0.594277,-0.08785 0.351399,-0.05684 0.769977,-0.129191 0.423745,-0.07235 0.857826,-0.155028 0.43408,-0.08785 0.847491,-0.1757 0.41341,-0.08785 0.749305,-0.170531 0.103353,-0.02584 0.180867,-0.02584 0.108521,0 0.170532,0.05168 0.06718,0.04651 0.09819,0.118855 0.03101,0.07235 0.03617,0.165364 0.01034,0.08785 0.01034,0.165364 0,0.134359 -0.09302,0.253214 -0.08785,0.113688 -0.294554,0.180867 -0.511595,0.149861 -1.033526,0.263549 -0.516762,0.10852 -1.04386,0.201537 -0.527098,0.08785 -1.059364,0.160197 -0.532265,0.07235 -1.059363,0.144693 -0.07235,0.01034 -0.108521,0.05684 -0.03617,0.04134 -0.03617,0.113688 v 0.211873 q 0,0.08785 0.0052,0.180867 0.0052,0.09302 0.02067,0.170531 0.02067,0.07752 0.05168,0.129191 0.03101,0.04651 0.08268,0.04651 0.124023,0 0.382404,-0.05168 0.263549,-0.05168 0.589109,-0.124023 0.330728,-0.07751 0.687295,-0.165364 0.361734,-0.09302 0.682126,-0.165364 0.320393,-0.07751 0.563272,-0.129191 0.242878,-0.05168 0.341063,-0.05168 0.144694,0 0.21704,0.10852 0.07751,0.103353 0.103353,0.263549 0,0.02584 0.0052,0.04651 0.0052,0.02067 0.0052,0.04651 0,0.149861 -0.09302,0.279051 -0.08785,0.124024 -0.320393,0.186035 -0.06201,0.02067 -0.248046,0.06718 -0.186035,0.04134 -0.439248,0.103353 -0.253214,0.05684 -0.547769,0.124023 -0.294554,0.06718 -0.578774,0.134358 -0.284219,0.06201 -0.532265,0.124023 -0.242879,0.05684 -0.397908,0.09302 -0.139526,0.03617 -0.170531,0.05684 -0.02584,0.02067 -0.02584,0.05168 0.01034,0.113687 0.113688,0.211872 0.10852,0.09818 0.268717,0.180867 0.165364,0.08268 0.366901,0.149861 0.206705,0.06718 0.423746,0.113688 0.222208,0.04134 0.43408,0.06718 0.211873,0.02584 0.39274,0.02584 0.07751,0 0.222208,0 0.144694,0 0.315225,-0.0052 0.1757,-0.01034 0.356566,-0.02584 0.186035,-0.0155 0.330729,-0.04134 0.149861,-0.03101 0.242878,-0.07235 0.09819,-0.04651 0.09819,-0.10852 0,-0.05684 -0.04134,-0.118856 -0.03617,-0.06201 -0.03617,-0.134358 0,-0.103353 0.05684,-0.201537 0.05684,-0.103353 0.144694,-0.180867 0.09302,-0.08268 0.206705,-0.129191 0.118855,-0.05168 0.237711,-0.05168 0.149861,0 0.273884,0.06201 0.124023,0.05684 0.211873,0.155029 0.09302,0.09302 0.139526,0.21704 0.05168,0.124023 0.05168,0.253214 0,0.341063 -0.253214,0.58911 -0.248046,0.248046 -0.651121,0.408242 -0.403075,0.165364 -0.909502,0.242878 -0.506427,0.08268 -1.018022,0.08268 -0.599445,0 -1.095537,-0.08268 -0.496093,-0.07751 -0.888832,-0.253213 -0.39274,-0.1757 -0.676959,-0.454751 -0.28422,-0.28422 -0.465087,-0.687295 -0.06201,-0.118855 -0.134358,-0.118855 z"
         style="fill:#b3b3b3"
         id="path99" />
      <path
         d="m 25.224772,44.043274 q -0.08785,0 -0.134358,-0.08785 -0.04134,-0.08785 -0.04134,-0.248046 0,-0.02584 0,-0.05684 0,-0.03617 0.01034,-0.134359 0.0155,-0.372069 0.366902,-0.43408 l 0.118855,-0.01034 q 0.118856,-0.0155 0.186035,-0.07235 0.06718,-0.06201 0.09818,-0.170532 0.08785,-0.294555 0.175699,-0.594277 0.08785,-0.299722 0.186035,-0.594277 0.05168,-0.165364 0.103352,-0.351399 0.05684,-0.191202 0.118856,-0.377237 0.06718,-0.186034 0.149861,-0.366901 0.08785,-0.180867 0.19637,-0.330728 0.04651,-0.06201 0.12919,-0.129191 0.08268,-0.06718 0.186035,-0.118855 0.10852,-0.05684 0.227375,-0.08785 0.124023,-0.03617 0.242879,-0.03617 0.155029,0 0.30489,0.09819 0.201537,0.139526 0.397907,0.335895 0.19637,0.19637 0.439248,0.50126 0.242879,0.30489 0.563272,0.738971 0.320392,0.428913 0.769976,1.038693 0.06718,0.07751 0.139526,0.118855 0.07751,0.03617 0.180867,0.03617 h 0.294555 q 0.180867,0 0.279051,0.08785 0.103353,0.08268 0.103353,0.232543 0,0.03101 -0.0052,0.07235 0,0.04134 -0.0155,0.08268 l -0.09818,0.289387 q -0.01034,0.04134 -0.0155,0.07235 -0.0052,0.03101 -0.0052,0.06201 0,0.10852 0.07235,0.222208 l 0.552936,0.754473 q 0.09302,0.139526 0.09302,0.263549 0,0.186035 -0.211873,0.325561 l -0.196369,0.139525 q -0.07235,0.04651 -0.139526,0.07235 -0.06201,0.02584 -0.129191,0.02584 -0.09302,0 -0.175699,-0.05684 -0.07752,-0.05168 -0.149861,-0.144693 -0.248046,-0.351399 -0.50126,-0.692462 -0.248046,-0.341063 -0.506428,-0.676959 -0.118855,-0.165364 -0.315225,-0.165364 -0.63045,0.02584 -1.250566,0.07235 -0.614947,0.04134 -1.235062,0.103352 -0.222208,0.02067 -0.279052,0.237711 l -0.232543,0.852658 q -0.09302,0.341064 -0.413411,0.341064 h -0.08268 l -0.160196,-0.02067 q -0.175699,-0.0155 -0.268717,-0.10852 -0.08785,-0.09302 -0.08785,-0.242878 0,-0.03101 0.0052,-0.06718 0.0052,-0.03617 0.0155,-0.07751 0.02584,-0.103352 0.05168,-0.211873 0.03101,-0.10852 0.06201,-0.211872 0.01034,-0.04134 0.0155,-0.07235 0.0052,-0.03617 0.0052,-0.06718 0,-0.160197 -0.124023,-0.160197 z m 2.459791,-2.728507 q -0.05168,-0.04651 -0.09302,-0.07751 -0.04134,-0.03101 -0.08785,-0.03101 -0.129191,0 -0.180867,0.180867 -0.103353,0.30489 -0.201538,0.604612 -0.09302,0.294555 -0.191202,0.604613 -0.01033,0.02584 -0.01033,0.04651 0,0.02067 0,0.04651 0,0.191202 0.201537,0.191202 h 0.05168 q 0.310057,-0.04134 0.620115,-0.06201 0.310057,-0.02584 0.620115,-0.04134 0.103353,-0.01034 0.160197,-0.05168 0.06201,-0.04651 0.06201,-0.118855 0,-0.06718 -0.06201,-0.160196 -0.217041,-0.289387 -0.439249,-0.568439 -0.21704,-0.28422 -0.449583,-0.563272 z"
         style="fill:#b3b3b3"
         id="path101" />
      <path
         d="m 32.909033,45.423031 q -0.149861,0.02584 -0.268717,0.05684 -0.118855,0.03617 -0.294554,0.03617 -0.191203,0 -0.294555,-0.10852 -0.103353,-0.10852 -0.103353,-0.242879 0,-0.10852 0.03617,-0.279052 0.03617,-0.175699 0.03617,-0.351398 -0.03617,-0.666624 -0.09819,-1.317745 -0.05684,-0.656289 -0.113688,-1.198889 -0.05684,-0.542601 -0.09818,-0.925006 -0.04134,-0.387572 -0.04134,-0.527098 0,-0.09302 0.04651,-0.170531 0.04651,-0.08268 0.129191,-0.144694 0.08268,-0.06201 0.191202,-0.09302 0.113688,-0.03617 0.237711,-0.03617 0.242878,0 0.356566,0.07751 0.113688,0.07235 0.139526,0.237711 0.144694,1.11104 0.206705,2.041212 0.06718,0.925006 0.09302,1.736323 0,0.118855 0.06201,0.180867 0.06718,0.06201 0.170532,0.06201 0.206705,0 0.418577,-0.02067 0.211873,-0.02584 0.423746,-0.05168 0.211872,-0.02584 0.418577,-0.04651 0.211873,-0.02584 0.408243,-0.02584 0.129191,0 0.206705,0.03101 0.08268,0.03101 0.124023,0.08268 0.04651,0.05168 0.05684,0.118855 0.0155,0.06201 0.0155,0.124023 0,0.09819 -0.02067,0.19637 -0.02067,0.09819 -0.07235,0.180867 -0.05168,0.07751 -0.139526,0.129191 -0.08785,0.05684 -0.222208,0.06718 -0.635618,0.06201 -1.162716,0.09302 -0.521931,0.03101 -0.847491,0.08785 z"
         style="fill:#b3b3b3"
         id="path103" />
    </g>
  </g>
  <g
     inkscape:label="Layer 1"
     inkscape:groupmode="layer"
     id="layer1"
     style="display:inline">
    <g
       aria-label="REAL"
       transform="matrix(1.8525853,0,0,1.8525853,-20.486192,-72.952965)"
       id="text10"
       style="font-size:10.5833px;line-height:1.25;font-family:'Gochi Hand';-inkscape-font-specification:'Gochi Hand';white-space:pre;shape-inside:url(#rect12);fill:#ffffff">
      <path
         d="m 14.662144,41.154571 q -0.103353,0.04134 -0.201537,0.04134 -0.248047,0 -0.341064,-0.294555 -0.02584,-0.07751 -0.03617,-0.12919 -0.0052,-0.05168 -0.0052,-0.09302 0,-0.242878 0.273884,-0.361734 0.542601,-0.21704 1.105873,-0.351398 0.563271,-0.134359 1.136877,-0.134359 0.268717,0 0.527098,0.05684 0.263549,0.05684 0.470254,0.19637 0.206705,0.139526 0.335896,0.372069 0.129191,0.232544 0.129191,0.583942 0,0.248046 -0.103353,0.475422 -0.09818,0.227375 -0.263549,0.43408 -0.165364,0.206706 -0.377236,0.39274 -0.211873,0.186035 -0.434081,0.341063 -0.222208,0.155029 -0.439248,0.28422 -0.217041,0.124023 -0.39274,0.21704 -0.149861,0.08785 -0.149861,0.180867 0,0.10852 0.160196,0.170532 0.552936,0.19637 1.131711,0.366901 0.578774,0.170532 1.173051,0.382405 0.279052,0.103352 0.279052,0.320393 0,0.103352 -0.06201,0.211872 -0.05684,0.103353 -0.129191,0.191202 -0.149861,0.222208 -0.372069,0.222208 -0.07751,0 -0.191202,-0.03101 -0.335896,-0.129191 -0.723468,-0.268717 -0.382404,-0.139526 -0.785479,-0.273884 -0.397907,-0.139526 -0.785479,-0.263549 -0.387572,-0.129191 -0.7183,-0.232543 -0.118856,-0.03101 -0.160197,-0.03101 -0.04134,0 -0.06718,0.02067 -0.02067,0.0155 -0.02067,0.07235 0,0.0155 0.0052,0.04134 0.0052,0.02067 0.0052,0.04651 0.0155,0.07751 0.03617,0.206705 0.02584,0.124023 0.04651,0.258381 0.02584,0.134359 0.04134,0.258382 0.0155,0.118855 0.0155,0.196369 0,0.289388 -0.315225,0.403075 l -0.232544,0.07235 q -0.05168,0.0155 -0.09302,0.02067 -0.04134,0.01033 -0.08785,0.01033 -0.284219,0 -0.330728,-0.351399 -0.124023,-0.940508 -0.320393,-1.855178 -0.191202,-0.91467 -0.439248,-1.824172 -0.0155,-0.05168 -0.02067,-0.08785 0,-0.04134 0,-0.07235 0,-0.273885 0.294554,-0.37207 0.108521,-0.03617 0.1757,-0.05684 0.07235,-0.02067 0.113688,-0.03101 0.04651,-0.0155 0.06718,-0.02067 0.02584,-0.0052 0.04651,-0.0052 0.279052,0 0.361734,0.315225 0.10852,0.403075 0.201538,0.780312 0.09818,0.377236 0.175699,0.744138 0.04134,0.180867 0.149861,0.180867 0.03101,0 0.07235,-0.01034 0.04134,-0.0155 0.09818,-0.04134 0.165364,-0.08785 0.397907,-0.21704 0.237711,-0.129191 0.490925,-0.284219 0.258381,-0.160197 0.506427,-0.335896 0.253214,-0.175699 0.449584,-0.351399 0.201537,-0.175699 0.32556,-0.346231 0.124023,-0.170531 0.124023,-0.320393 0,-0.09302 -0.03101,-0.170531 -0.02584,-0.07752 -0.103352,-0.134359 -0.07751,-0.05684 -0.211873,-0.08785 -0.129191,-0.03101 -0.330728,-0.03101 -0.19637,0 -0.41341,0.03617 -0.211873,0.03101 -0.423746,0.08785 -0.211872,0.05684 -0.418577,0.129191 -0.206705,0.07235 -0.39274,0.149861 z"
         style="fill:#ffffff"
         id="path88" />
      <path
         d="m 19.132141,43.800396 q -0.0155,0 -0.05168,0.0052 -0.03101,0.0052 -0.07235,0.01034 -0.03617,0.0052 -0.07235,0.01033 -0.03617,0.0052 -0.05684,0.0052 -0.144693,0 -0.253213,-0.118856 -0.108521,-0.124023 -0.108521,-0.32556 0,-0.134359 0.08785,-0.258382 0.08785,-0.124023 0.273884,-0.206705 0.05684,-0.02584 0.08785,-0.05684 0.03617,-0.03617 0.03617,-0.09819 0,-0.165364 -0.01033,-0.351398 -0.0052,-0.191202 -0.02067,-0.444416 -0.0052,-0.05168 -0.03617,-0.09818 -0.02584,-0.04651 -0.06201,-0.103352 -0.03101,-0.06201 -0.05684,-0.134359 -0.02584,-0.07235 -0.02584,-0.180867 0,-0.09819 0.02584,-0.222208 0.03101,-0.12919 0.118855,-0.237711 0.09302,-0.113687 0.253214,-0.186034 0.165364,-0.07751 0.428913,-0.07751 0.10852,0 0.180867,0.02067 0.07235,0.02067 0.124023,0.05168 0.05684,0.02584 0.09819,0.04651 0.04651,0.02067 0.09302,0.02067 0.08268,0 0.330728,-0.03101 0.248046,-0.03101 0.594277,-0.08785 0.351399,-0.05684 0.769977,-0.129191 0.423745,-0.07235 0.857826,-0.155028 0.43408,-0.08785 0.847491,-0.1757 0.41341,-0.08785 0.749305,-0.170531 0.103353,-0.02584 0.180867,-0.02584 0.108521,0 0.170532,0.05168 0.06718,0.04651 0.09819,0.118855 0.03101,0.07235 0.03617,0.165364 0.01034,0.08785 0.01034,0.165364 0,0.134359 -0.09302,0.253214 -0.08785,0.113688 -0.294554,0.180867 -0.511595,0.149861 -1.033526,0.263549 -0.516762,0.10852 -1.04386,0.201537 -0.527098,0.08785 -1.059364,0.160197 -0.532265,0.07235 -1.059363,0.144693 -0.07235,0.01034 -0.108521,0.05684 -0.03617,0.04134 -0.03617,0.113688 v 0.211873 q 0,0.08785 0.0052,0.180867 0.0052,0.09302 0.02067,0.170531 0.02067,0.07752 0.05168,0.129191 0.03101,0.04651 0.08268,0.04651 0.124023,0 0.382404,-0.05168 0.263549,-0.05168 0.589109,-0.124023 0.330728,-0.07751 0.687295,-0.165364 0.361734,-0.09302 0.682126,-0.165364 0.320393,-0.07751 0.563272,-0.129191 0.242878,-0.05168 0.341063,-0.05168 0.144694,0 0.21704,0.10852 0.07751,0.103353 0.103353,0.263549 0,0.02584 0.0052,0.04651 0.0052,0.02067 0.0052,0.04651 0,0.149861 -0.09302,0.279051 -0.08785,0.124024 -0.320393,0.186035 -0.06201,0.02067 -0.248046,0.06718 -0.186035,0.04134 -0.439248,0.103353 -0.253214,0.05684 -0.547769,0.124023 -0.294554,0.06718 -0.578774,0.134358 -0.284219,0.06201 -0.532265,0.124023 -0.242879,0.05684 -0.397908,0.09302 -0.139526,0.03617 -0.170531,0.05684 -0.02584,0.02067 -0.02584,0.05168 0.01034,0.113687 0.113688,0.211872 0.10852,0.09818 0.268717,0.180867 0.165364,0.08268 0.366901,0.149861 0.206705,0.06718 0.423746,0.113688 0.222208,0.04134 0.43408,0.06718 0.211873,0.02584 0.39274,0.02584 0.07751,0 0.222208,0 0.144694,0 0.315225,-0.0052 0.1757,-0.01034 0.356566,-0.02584 0.186035,-0.0155 0.330729,-0.04134 0.149861,-0.03101 0.242878,-0.07235 0.09819,-0.04651 0.09819,-0.10852 0,-0.05684 -0.04134,-0.118856 -0.03617,-0.06201 -0.03617,-0.134358 0,-0.103353 0.05684,-0.201537 0.05684,-0.103353 0.144694,-0.180867 0.09302,-0.08268 0.206705,-0.129191 0.118855,-0.05168 0.237711,-0.05168 0.149861,0 0.273884,0.06201 0.124023,0.05684 0.211873,0.155029 0.09302,0.09302 0.139526,0.21704 0.05168,0.124023 0.05168,0.253214 0,0.341063 -0.253214,0.58911 -0.248046,0.248046 -0.651121,0.408242 -0.403075,0.165364 -0.909502,0.242878 -0.506427,0.08268 -1.018022,0.08268 -0.599445,0 -1.095537,-0.08268 -0.496093,-0.07751 -0.888832,-0.253213 -0.39274,-0.1757 -0.676959,-0.454751 -0.28422,-0.28422 -0.465087,-0.687295 -0.06201,-0.118855 -0.134358,-0.118855 z"
         style="fill:#ffffff"
         id="path90" />
      <path
         d="m 25.224772,44.043274 q -0.08785,0 -0.134358,-0.08785 -0.04134,-0.08785 -0.04134,-0.248046 0,-0.02584 0,-0.05684 0,-0.03617 0.01034,-0.134359 0.0155,-0.372069 0.366902,-0.43408 l 0.118855,-0.01034 q 0.118856,-0.0155 0.186035,-0.07235 0.06718,-0.06201 0.09818,-0.170532 0.08785,-0.294555 0.175699,-0.594277 0.08785,-0.299722 0.186035,-0.594277 0.05168,-0.165364 0.103352,-0.351399 0.05684,-0.191202 0.118856,-0.377237 0.06718,-0.186034 0.149861,-0.366901 0.08785,-0.180867 0.19637,-0.330728 0.04651,-0.06201 0.12919,-0.129191 0.08268,-0.06718 0.186035,-0.118855 0.10852,-0.05684 0.227375,-0.08785 0.124023,-0.03617 0.242879,-0.03617 0.155029,0 0.30489,0.09819 0.201537,0.139526 0.397907,0.335895 0.19637,0.19637 0.439248,0.50126 0.242879,0.30489 0.563272,0.738971 0.320392,0.428913 0.769976,1.038693 0.06718,0.07751 0.139526,0.118855 0.07751,0.03617 0.180867,0.03617 h 0.294555 q 0.180867,0 0.279051,0.08785 0.103353,0.08268 0.103353,0.232543 0,0.03101 -0.0052,0.07235 0,0.04134 -0.0155,0.08268 l -0.09818,0.289387 q -0.01034,0.04134 -0.0155,0.07235 -0.0052,0.03101 -0.0052,0.06201 0,0.10852 0.07235,0.222208 l 0.552936,0.754473 q 0.09302,0.139526 0.09302,0.263549 0,0.186035 -0.211873,0.325561 l -0.196369,0.139525 q -0.07235,0.04651 -0.139526,0.07235 -0.06201,0.02584 -0.129191,0.02584 -0.09302,0 -0.175699,-0.05684 -0.07752,-0.05168 -0.149861,-0.144693 -0.248046,-0.351399 -0.50126,-0.692462 -0.248046,-0.341063 -0.506428,-0.676959 -0.118855,-0.165364 -0.315225,-0.165364 -0.63045,0.02584 -1.250566,0.07235 -0.614947,0.04134 -1.235062,0.103352 -0.222208,0.02067 -0.279052,0.237711 l -0.232543,0.852658 q -0.09302,0.341064 -0.413411,0.341064 h -0.08268 l -0.160196,-0.02067 q -0.175699,-0.0155 -0.268717,-0.10852 -0.08785,-0.09302 -0.08785,-0.242878 0,-0.03101 0.0052,-0.06718 0.0052,-0.03617 0.0155,-0.07751 0.02584,-0.103352 0.05168,-0.211873 0.03101,-0.10852 0.06201,-0.211872 0.01034,-0.04134 0.0155,-0.07235 0.0052,-0.03617 0.0052,-0.06718 0,-0.160197 -0.124023,-0.160197 z m 2.459791,-2.728507 q -0.05168,-0.04651 -0.09302,-0.07751 -0.04134,-0.03101 -0.08785,-0.03101 -0.129191,0 -0.180867,0.180867 -0.103353,0.30489 -0.201538,0.604612 -0.09302,0.294555 -0.191202,0.604613 -0.01033,0.02584 -0.01033,0.04651 0,0.02067 0,0.04651 0,0.191202 0.201537,0.191202 h 0.05168 q 0.310057,-0.04134 0.620115,-0.06201 0.310057,-0.02584 0.620115,-0.04134 0.103353,-0.01034 0.160197,-0.05168 0.06201,-0.04651 0.06201,-0.118855 0,-0.06718 -0.06201,-0.160196 -0.217041,-0.289387 -0.439249,-0.568439 -0.21704,-0.28422 -0.449583,-0.563272 z"
         style="fill:#ffffff"
         id="path92" />
      <path
         d="m 32.909033,45.423031 q -0.149861,0.02584 -0.268717,0.05684 -0.118855,0.03617 -0.294554,0.03617 -0.191203,0 -0.294555,-0.10852 -0.103353,-0.10852 -0.103353,-0.242879 0,-0.10852 0.03617,-0.279052 0.03617,-0.175699 0.03617,-0.351398 -0.03617,-0.666624 -0.09819,-1.317745 -0.05684,-0.656289 -0.113688,-1.198889 -0.05684,-0.542601 -0.09818,-0.925006 -0.04134,-0.387572 -0.04134,-0.527098 0,-0.09302 0.04651,-0.170531 0.04651,-0.08268 0.129191,-0.144694 0.08268,-0.06201 0.191202,-0.09302 0.113688,-0.03617 0.237711,-0.03617 0.242878,0 0.356566,0.07751 0.113688,0.07235 0.139526,0.237711 0.144694,1.11104 0.206705,2.041212 0.06718,0.925006 0.09302,1.736323 0,0.118855 0.06201,0.180867 0.06718,0.06201 0.170532,0.06201 0.206705,0 0.418577,-0.02067 0.211873,-0.02584 0.423746,-0.05168 0.211872,-0.02584 0.418577,-0.04651 0.211873,-0.02584 0.408243,-0.02584 0.129191,0 0.206705,0.03101 0.08268,0.03101 0.124023,0.08268 0.04651,0.05168 0.05684,0.118855 0.0155,0.06201 0.0155,0.124023 0,0.09819 -0.02067,0.19637 -0.02067,0.09819 -0.07235,0.180867 -0.05168,0.07751 -0.139526,0.129191 -0.08785,0.05684 -0.222208,0.06718 -0.635618,0.06201 -1.162716,0.09302 -0.521931,0.03101 -0.847491,0.08785 z"
         style="fill:#ffffff"
         id="path94" />
    </g>
  </g>
</svg>
