<?xml version="1.0" encoding="UTF-8" standalone="no"?>
<svg
   xmlns:dc="http://purl.org/dc/elements/1.1/"
   xmlns:cc="http://creativecommons.org/ns#"
   xmlns:rdf="http://www.w3.org/1999/02/22-rdf-syntax-ns#"
   xmlns:svg="http://www.w3.org/2000/svg"
   xmlns="http://www.w3.org/2000/svg"
   xmlns:sodipodi="http://sodipodi.sourceforge.net/DTD/sodipodi-0.dtd"
   xmlns:inkscape="http://www.inkscape.org/namespaces/inkscape"
   sodipodi:docname="real-favicon.svg"
   inkscape:version="1.0 (6e3e5246a0, 2020-05-07)"
   id="svg103"
   version="1.1"
   viewBox="0 0 33.866666 33.866668"
   height="128"
   width="128">
  <defs
     id="defs97">
    <filter
       height="1.000086"
       y="-4.2985185e-05"
       width="1.0000868"
       x="-4.3416973e-05"
       id="filter975"
       style="color-interpolation-filters:sRGB"
       inkscape:collect="always">
      <feGaussianBlur
         id="feGaussianBlur977"
         stdDeviation="0.00060770026"
         inkscape:collect="always" />
    </filter>
  </defs>
  <sodipodi:namedview
     inkscape:window-maximized="1"
     inkscape:window-y="27"
     inkscape:window-x="1667"
     inkscape:window-height="845"
     inkscape:window-width="1533"
     units="px"
     showgrid="false"
     inkscape:document-rotation="0"
     inkscape:current-layer="layer3"
     inkscape:document-units="mm"
     inkscape:cy="62.724472"
     inkscape:cx="76.688277"
     inkscape:zoom="1.979899"
     inkscape:pageshadow="2"
     inkscape:pageopacity="0.0"
     borderopacity="1.0"
     bordercolor="#666666"
     pagecolor="#ffffff"
     id="base" />
  <metadata
     id="metadata100">
    <rdf:RDF>
      <cc:Work
         rdf:about="">
        <dc:format>image/svg+xml</dc:format>
        <dc:type
           rdf:resource="http://purl.org/dc/dcmitype/StillImage" />
        <dc:title></dc:title>
      </cc:Work>
    </rdf:RDF>
  </metadata>
  <g
     inkscape:label="Layer 3"
     id="layer3"
     inkscape:groupmode="layer">
    <ellipse
       ry="16.964922"
       rx="16.796204"
       cy="16.972908"
       cx="16.916494"
       id="path130"
       style="fill:#444400;stroke-width:0.264583;filter:url(#filter975);opacity:1;fill-opacity:1" />
  </g>
  <g
     sodipodi:insensitive="true"
     inkscape:label="Layer 2"
     id="layer2"
     inkscape:groupmode="layer">
    <path
       id="path88-3"
       style="font-size:10.5833px;line-height:1.25;font-family:'Gochi Hand';-inkscape-font-specification:'Gochi Hand';white-space:pre;shape-inside:url(#rect12);display:inline;fill:#808080;stroke-width:4.07845"
       d="m 12.202139,10.503776 q -0.401911,0.176837 -0.783713,0.176837 -0.964592,0 -1.326306,-1.2599245 -0.1005467,-0.3315401 -0.1406387,-0.552594 -0.02099,-0.2210522 -0.02099,-0.3978841 0,-1.038882 1.0650547,-1.547275 2.110019,-0.928363 4.300434,-1.503064 2.190415,-0.574704 4.421005,-0.574704 1.044988,0 2.049756,0.243127 1.024877,0.243126 1.82868,0.839949 0.803823,0.596807 1.306218,1.591481 0.502394,0.9946802 0.502394,2.4977456 0,1.060987 -0.401911,2.033561 -0.381802,0.972571 -1.024878,1.856728 -0.643054,0.88416 -1.466965,1.679899 -0.823912,0.795743 -1.688021,1.458856 -0.864109,0.663119 -1.708129,1.215719 -0.843999,0.530493 -1.527251,0.928362 -0.582769,0.37577 -0.582769,0.773639 0,0.464181 0.622945,0.72943 2.150239,0.839951 4.400939,1.569377 2.25068,0.72943 4.561666,1.635693 1.085164,0.442078 1.085164,1.370445 0,0.442076 -0.241143,0.906258 -0.221034,0.442081 -0.502395,0.817844 -0.582768,0.950468 -1.446877,0.950468 -0.301408,0 -0.743517,-0.132643 -1.306218,-0.5526 -2.813381,-1.149406 -1.487075,-0.596808 -3.054524,-1.171506 -1.54734,-0.596808 -3.054503,-1.127301 -1.507163,-0.5526 -2.793292,-0.994677 -0.462198,-0.132644 -0.622946,-0.132644 -0.160789,0 -0.261251,0.08841 -0.08039,0.06628 -0.08039,0.309469 0,0.06631 0.02099,0.176837 0.02099,0.08841 0.02099,0.198933 0.06024,0.331538 0.140639,0.884155 0.100546,0.530497 0.180941,1.105195 0.100547,0.574703 0.16079,1.1052 0.06024,0.508389 0.06024,0.839946 0,1.237823 -1.225823,1.724106 l -0.904306,0.309467 q -0.200882,0.06631 -0.361735,0.08841 -0.1607907,0.04419 -0.3416267,0.04419 -1.1052506,0 -1.2861076,-1.50307 -0.482264,-4.02291 -1.245911,-7.935304 -0.743538,-3.912394 -1.708108,-7.802683 -0.06024,-0.221051 -0.0804,-0.375768 0,-0.176837 0,-0.309468 0,-1.171514 1.145428,-1.591487 0.42202,-0.154719 0.683251,-0.243128 0.281362,-0.08841 0.442109,-0.132645 0.180941,-0.06629 0.261231,-0.08841 0.100546,-0.02217 0.180941,-0.02217 1.085164,0 1.4066796,1.348338 0.4219997,1.724107 0.7837347,3.337693 0.381782,1.613584 0.683252,3.182963 0.160789,0.773639 0.582768,0.773639 0.120488,0 0.281341,-0.04424 0.160789,-0.06629 0.381802,-0.176836 0.643054,-0.375776 1.54734,-0.92837 0.924394,-0.552598 1.909074,-1.215713 1.00479,-0.685226 1.969361,-1.436757 0.98468,-0.751532 1.748327,-1.50307 0.783714,-0.751531 1.266,-1.480961 0.482305,-0.729426 0.482305,-1.370442 0,-0.397884 -0.120696,-0.7294285 Q 21.024878,9.5309851 20.723513,9.2878629 20.422105,9.044737 19.899601,8.912094 19.397206,8.7794491 18.613471,8.7794491 q -0.763625,0 -1.607625,0.154718 -0.823933,0.1326438 -1.647844,0.3757668 -0.823911,0.2431261 -1.627734,0.5526011 -0.803823,0.309467 -1.527251,0.641012 z" />
  </g>
  <g
     sodipodi:insensitive="true"
     id="layer1"
     inkscape:groupmode="layer"
     inkscape:label="Layer 1">
    <path
       d="m 12.958276,9.5246397 q -0.401911,0.176836 -0.783713,0.176836 -0.964592,0 -1.326306,-1.259924 -0.100546,-0.33154 -0.140638,-0.552594 -0.02099,-0.221052 -0.02099,-0.397884 0,-1.038882 1.065054,-1.547275 2.11002,-0.928363 4.300435,-1.503064 2.190415,-0.5747041 4.421005,-0.5747041 1.044988,0 2.049756,0.2431271 1.024877,0.243126 1.82868,0.839949 0.803823,0.596807 1.306218,1.591481 0.502394,0.99468 0.502394,2.497746 0,1.0609863 -0.401911,2.0335603 -0.381802,0.972572 -1.024878,1.856729 -0.643054,0.884161 -1.466965,1.679899 -0.823912,0.795745 -1.688021,1.458858 -0.864109,0.663118 -1.708129,1.215718 -0.843999,0.530494 -1.527251,0.928363 -0.582769,0.37577 -0.582769,0.773639 0,0.464181 0.622945,0.729429 2.150239,0.839951 4.400939,1.569376 2.25068,0.729431 4.561666,1.635694 1.085164,0.442078 1.085164,1.370445 0,0.442075 -0.241143,0.906259 -0.221034,0.44208 -0.502395,0.817843 -0.582768,0.950468 -1.446877,0.950468 -0.301408,0 -0.743517,-0.132644 -1.306218,-0.552599 -2.813381,-1.149405 -1.487075,-0.596808 -3.054524,-1.171507 -1.54734,-0.596806 -3.054503,-1.127299 -1.507163,-0.552602 -2.793292,-0.994678 -0.462198,-0.132644 -0.622946,-0.132644 -0.160789,0 -0.261251,0.08841 -0.08039,0.06628 -0.08039,0.309469 0,0.06631 0.02099,0.176837 0.02099,0.08841 0.02099,0.198933 0.06024,0.331539 0.140639,0.884155 0.100546,0.530497 0.180941,1.105195 0.100547,0.574703 0.16079,1.105199 0.06024,0.508389 0.06024,0.839947 0,1.237822 -1.225823,1.724105 l -0.904306,0.309468 q -0.200882,0.06631 -0.361735,0.08841 -0.16079,0.04419 -0.341626,0.04419 -1.1052513,0 -1.2861083,-1.503069 -0.482266,-4.02291 -1.245913,-7.935305 -0.743538,-3.912393 -1.708108,-7.802685 -0.06024,-0.221051 -0.0804,-0.375768 0,-0.176837 0,-0.309468 0,-1.171513 1.145428,-1.5914873 0.42202,-0.154718 0.683251,-0.243127 0.281362,-0.08841 0.442109,-0.132645 0.180941,-0.06629 0.261231,-0.08841 0.100546,-0.02217 0.180941,-0.02217 1.0851643,0 1.4066803,1.3483373 0.421999,1.724109 0.783734,3.337696 0.381782,1.613583 0.683252,3.182963 0.160789,0.773639 0.582768,0.773639 0.120488,0 0.281341,-0.04424 0.160789,-0.06629 0.381802,-0.176836 0.643054,-0.375776 1.54734,-0.928371 0.924394,-0.552598 1.909074,-1.215712 1.00479,-0.685227 1.969361,-1.436757 0.98468,-0.751533 1.748327,-1.503071 0.783714,-0.751532 1.266,-1.480962 0.482305,-0.729426 0.482305,-1.3704433 0,-0.397883 -0.120696,-0.729428 -0.100546,-0.331588 -0.401911,-0.57471 -0.301408,-0.243126 -0.823912,-0.375769 -0.502395,-0.132645 -1.28613,-0.132645 -0.763625,0 -1.607625,0.154718 -0.823933,0.132644 -1.647844,0.375767 -0.823911,0.243126 -1.627734,0.552601 -0.803823,0.309467 -1.527251,0.641012 z"
       style="font-size:10.5833px;line-height:1.25;font-family:'Gochi Hand';-inkscape-font-specification:'Gochi Hand';white-space:pre;shape-inside:url(#rect12);display:inline;fill:#ffffff;stroke-width:4.07844"
       id="path88" />
  </g>
</svg>
